<svg width="31" height="32" viewBox="0 0 31 32" fill="none" xmlns="http://www.w3.org/2000/svg">
<path fill-rule="evenodd" clip-rule="evenodd" d="M23.9296 0C24.2058 0 24.4296 0.223858 24.4296 0.5V2.81104H26.9677C29.1769 2.81104 30.9677 4.6019 30.9677 6.81104V8.48389H0V6.81103C0 4.60189 1.79086 2.81104 4 2.81104H6.06891V0.5C6.06891 0.223858 6.29277 0 6.56891 0C6.84505 0 7.06891 0.223858 7.06891 0.5V2.81104H23.4296V0.5C23.4296 0.223858 23.6535 0 23.9296 0ZM0 9.48389H30.9677V27.4678C30.9677 29.6769 29.1769 31.4678 26.9677 31.4678H4C1.79086 31.4678 0 29.6769 0 27.4678V9.48389ZM6.48387 15.4839C6.48387 15.2077 6.26001 14.9839 5.98387 14.9839C5.70773 14.9839 5.48387 15.2077 5.48387 15.4839V16.4839C5.48387 16.76 5.70773 16.9839 5.98387 16.9839C6.26001 16.9839 6.48387 16.76 6.48387 16.4839V15.4839ZM10.4839 15.4839C10.4839 15.2077 10.26 14.9839 9.98387 14.9839C9.70773 14.9839 9.48387 15.2077 9.48387 15.4839V16.4839C9.48387 16.76 9.70773 16.9839 9.98387 16.9839C10.26 16.9839 10.4839 16.76 10.4839 16.4839V15.4839ZM14.9839 15.4839C14.9839 15.2077 14.76 14.9839 14.4839 14.9839C14.2077 14.9839 13.9839 15.2077 13.9839 15.4839V16.4839C13.9839 16.76 14.2077 16.9839 14.4839 16.9839C14.76 16.9839 14.9839 16.76 14.9839 16.4839V15.4839ZM19.4839 15.4839C19.4839 15.2077 19.26 14.9839 18.9839 14.9839C18.7077 14.9839 18.4839 15.2077 18.4839 15.4839V16.4839C18.4839 16.76 18.7077 16.9839 18.9839 16.9839C19.26 16.9839 19.4839 16.76 19.4839 16.4839V15.4839ZM23.9839 15.4839C23.9839 15.2077 23.76 14.9839 23.4839 14.9839C23.2077 14.9839 22.9839 15.2077 22.9839 15.4839V16.4839C22.9839 16.76 23.2077 16.9839 23.4839 16.9839C23.76 16.9839 23.9839 16.76 23.9839 16.4839V15.4839ZM6.48387 21.9839C6.48387 21.7077 6.26001 21.4839 5.98387 21.4839C5.70773 21.4839 5.48387 21.7077 5.48387 21.9839V22.9839C5.48387 23.26 5.70773 23.4839 5.98387 23.4839C6.26001 23.4839 6.48387 23.26 6.48387 22.9839V21.9839ZM10.4839 21.9839C10.4839 21.7077 10.26 21.4839 9.98387 21.4839C9.70773 21.4839 9.48387 21.7077 9.48387 21.9839V22.9839C9.48387 23.26 9.70773 23.4839 9.98387 23.4839C10.26 23.4839 10.4839 23.26 10.4839 22.9839V21.9839ZM14.9839 21.9839C14.9839 21.7077 14.76 21.4839 14.4839 21.4839C14.2077 21.4839 13.9839 21.7077 13.9839 21.9839V22.9839C13.9839 23.26 14.2077 23.4839 14.4839 23.4839C14.76 23.4839 14.9839 23.26 14.9839 22.9839V21.9839ZM19.4839 21.9839C19.4839 21.7077 19.26 21.4839 18.9839 21.4839C18.7077 21.4839 18.4839 21.7077 18.4839 21.9839V22.9839C18.4839 23.26 18.7077 23.4839 18.9839 23.4839C19.26 23.4839 19.4839 23.26 19.4839 22.9839V21.9839ZM23.9839 21.9839C23.9839 21.7077 23.76 21.4839 23.4839 21.4839C23.2077 21.4839 22.9839 21.7077 22.9839 21.9839V22.9839C22.9839 23.26 23.2077 23.4839 23.4839 23.4839C23.76 23.4839 23.9839 23.26 23.9839 22.9839V21.9839Z" fill="#C72D37"/>
</svg>
