<svg width="33" height="33" viewBox="0 0 33 33" fill="none" xmlns="http://www.w3.org/2000/svg">
<path fill-rule="evenodd" clip-rule="evenodd" d="M16.5 0C7.3873 0 0 7.3873 0 16.5C0 25.6127 7.3873 33 16.5 33C25.6127 33 33 25.6127 33 16.5C33 7.3873 25.6127 0 16.5 0ZM23.9021 10.7972C24.0662 10.5751 24.0193 10.262 23.7972 10.0979C23.5751 9.93377 23.262 9.98074 23.0979 10.2028L14.9252 21.26L10.3345 17.1284C10.1292 16.9436 9.81308 16.9603 9.62835 17.1655C9.44362 17.3708 9.46026 17.6869 9.66552 17.8716L14.6655 22.3716C14.7703 22.466 14.91 22.5116 15.0503 22.4975C15.1905 22.4833 15.3183 22.4106 15.4021 22.2972L23.9021 10.7972Z" fill="#F8F8F8"/>
</svg>
