<svg width="45" height="32" viewBox="0 0 45 32" fill="none" xmlns="http://www.w3.org/2000/svg">
<path fill-rule="evenodd" clip-rule="evenodd" d="M4 0C1.79086 0 0 1.79086 0 4V28C0 30.2091 1.79086 32 4 32H41C43.2091 32 45 30.2091 45 28V4C45 1.79086 43.2091 0 41 0H4ZM6.625 4.17383C6.07272 4.17383 5.625 4.62154 5.625 5.17383V8.73905C5.625 9.29133 6.07272 9.73905 6.625 9.73905H11.6562C12.2085 9.73905 12.6562 9.29133 12.6562 8.73905V5.17383C12.6562 4.62154 12.2085 4.17383 11.6562 4.17383H6.625ZM28.125 5.06519C28.4011 5.06519 28.625 5.28904 28.625 5.56519V6.95649C28.625 7.23263 28.4011 7.45649 28.125 7.45649C27.8489 7.45649 27.625 7.23263 27.625 6.95649V5.56519C27.625 5.28904 27.8489 5.06519 28.125 5.06519ZM30.9375 5.06519C31.2136 5.06519 31.4375 5.28904 31.4375 5.56519V6.95649C31.4375 7.23263 31.2136 7.45649 30.9375 7.45649C30.6614 7.45649 30.4375 7.23263 30.4375 6.95649V5.56519C30.4375 5.28904 30.6614 5.06519 30.9375 5.06519ZM33.75 5.06519C34.0261 5.06519 34.25 5.28904 34.25 5.56519V6.95649C34.25 7.23263 34.0261 7.45649 33.75 7.45649C33.4739 7.45649 33.25 7.23263 33.25 6.95649V5.56519C33.25 5.28904 33.4739 5.06519 33.75 5.06519ZM36.5625 5.06519C36.8386 5.06519 37.0625 5.28904 37.0625 5.56519V6.95649C37.0625 7.23263 36.8386 7.45649 36.5625 7.45649C36.2864 7.45649 36.0625 7.23263 36.0625 6.95649V5.56519C36.0625 5.28904 36.2864 5.06519 36.5625 5.06519ZM7.53125 22.261C7.53125 21.9848 7.30739 21.761 7.03125 21.761C6.75511 21.761 6.53125 21.9848 6.53125 22.261V23.6523C6.53125 23.9284 6.75511 24.1523 7.03125 24.1523C7.30739 24.1523 7.53125 23.9284 7.53125 23.6523V22.261ZM10.3438 22.261C10.3438 21.9848 10.1199 21.761 9.84375 21.761C9.56761 21.761 9.34375 21.9848 9.34375 22.261V23.6523C9.34375 23.9284 9.56761 24.1523 9.84375 24.1523C10.1199 24.1523 10.3438 23.9284 10.3438 23.6523V22.261ZM13.1562 22.261C13.1562 21.9848 12.9324 21.761 12.6562 21.761C12.3801 21.761 12.1562 21.9848 12.1562 22.261V23.6523C12.1562 23.9284 12.3801 24.1523 12.6562 24.1523C12.9324 24.1523 13.1562 23.9284 13.1562 23.6523V22.261ZM15.9688 22.261C15.9688 21.9848 15.7449 21.761 15.4688 21.761C15.1926 21.761 14.9688 21.9848 14.9688 22.261V23.6523C14.9688 23.9284 15.1926 24.1523 15.4688 24.1523C15.7449 24.1523 15.9688 23.9284 15.9688 23.6523V22.261ZM18.7812 22.261C18.7812 21.9848 18.5574 21.761 18.2812 21.761C18.0051 21.761 17.7812 21.9848 17.7812 22.261V23.6523C17.7812 23.9284 18.0051 24.1523 18.2812 24.1523C18.5574 24.1523 18.7812 23.9284 18.7812 23.6523V22.261ZM7.03125 25.9349C6.75511 25.9349 6.53125 26.1588 6.53125 26.4349C6.53125 26.711 6.75511 26.9349 7.03125 26.9349H18.2812C18.5574 26.9349 18.7812 26.711 18.7812 26.4349C18.7812 26.1588 18.5574 25.9349 18.2812 25.9349H7.03125Z" fill="#F8F8F8"/>
</svg>
