<svg width="28" height="28" viewBox="0 0 28 28" fill="none" xmlns="http://www.w3.org/2000/svg">
    <circle cx="14.0526" cy="13.9476" r="13.5987" stroke="#464646" stroke-width="0.697368" />
    <path
        d="M6.62616 14.2085L9.83273 15.4042L11.0827 19.4259C11.1371 19.6977 11.4632 19.752 11.6806 19.589L13.4741 18.1216C13.6371 17.9585 13.9089 17.9585 14.1262 18.1216L17.3328 20.4586C17.5502 20.6216 17.8763 20.5129 17.9306 20.2412L20.322 8.82801C20.3763 8.55627 20.1046 8.28453 19.8328 8.39322L6.62616 13.502C6.30007 13.6107 6.30007 14.0998 6.62616 14.2085ZM10.9197 14.8063L17.2241 10.9476C17.3328 10.8932 17.4415 11.0563 17.3328 11.1106L12.1697 15.9477C12.0067 16.1107 11.8436 16.3281 11.8436 16.5998L11.6806 17.9042C11.6806 18.0672 11.4088 18.1216 11.3545 17.9042L10.7023 15.5129C10.5392 15.2411 10.648 14.915 10.9197 14.8063Z"
        fill="#464646" />
</svg>
