<svg width="28" height="28" viewBox="0 0 28 28" fill="none" xmlns="http://www.w3.org/2000/svg">
    <circle cx="13.9999" cy="13.9476" r="13.5987" stroke="#464646" stroke-width="0.697368" />
    <path
        d="M20.8381 17.5149C20.8381 17.457 20.7802 17.457 20.7802 17.3991C20.5486 16.9359 20.0276 16.3569 19.3328 15.7201C18.9854 15.4306 18.8117 15.199 18.6959 15.0832C18.5222 14.8516 18.5222 14.6779 18.5801 14.4463C18.638 14.2726 18.8696 13.9831 19.2749 13.462C19.5065 13.1726 19.6223 12.9989 19.796 12.8252C20.6644 11.6672 21.0697 10.9146 20.9539 10.5672L20.896 10.5093C20.8381 10.4514 20.7802 10.3935 20.6644 10.3935C20.5486 10.3356 20.3749 10.3356 20.2013 10.3935H18.0012C17.9433 10.3935 17.9432 10.3935 17.8274 10.3935C17.7696 10.3935 17.7117 10.3935 17.7117 10.3935H17.6538H17.5959L17.538 10.4514C17.4801 10.5093 17.4801 10.5093 17.4801 10.5672C17.2485 11.204 16.959 11.7251 16.6695 12.3041C16.4958 12.5936 16.3221 12.8831 16.1484 13.1147C15.9747 13.3463 15.8589 13.5199 15.7431 13.6357C15.6273 13.7515 15.5115 13.8094 15.4536 13.9252C15.3957 13.9831 15.28 14.041 15.28 13.9831C15.2221 13.9831 15.1642 13.9831 15.1642 13.9252C15.1063 13.8673 15.0484 13.8094 14.9905 13.7515C14.9326 13.6936 14.9326 13.5778 14.8747 13.462C14.8747 13.3462 14.8747 13.2305 14.8747 13.1726C14.8747 13.1147 14.8747 12.941 14.8747 12.8252C14.8747 12.6515 14.8747 12.5357 14.8747 12.4778C14.8747 12.3041 14.8747 12.0725 14.8747 11.8409C14.8747 11.6093 14.8747 11.4356 14.8747 11.3198C14.8747 11.204 14.8747 11.0303 14.8747 10.9146C14.8747 10.7409 14.8747 10.6251 14.8747 10.5672C14.8747 10.5093 14.8168 10.3935 14.8168 10.3356C14.7589 10.2777 14.701 10.2198 14.6431 10.1619C14.5852 10.104 14.4694 10.104 14.4115 10.0461C14.122 9.98819 13.7746 9.9303 13.3693 9.9303C12.443 9.9303 11.8061 9.9882 11.5745 10.104C11.4587 10.1619 11.3429 10.2198 11.285 10.3356C11.1692 10.4514 11.1692 10.5093 11.2271 10.5093C11.5166 10.5672 11.7482 10.683 11.864 10.8567L11.9219 10.9725C11.9798 11.0304 11.9798 11.1461 12.0377 11.3198C12.0956 11.4935 12.0956 11.6672 12.0956 11.8988C12.0956 12.2462 12.0956 12.5936 12.0956 12.8252C12.0956 13.1147 12.0377 13.2884 12.0377 13.462C12.0377 13.6357 11.9798 13.7515 11.9219 13.8094C11.864 13.9252 11.864 13.9831 11.8061 13.9831C11.8061 13.9831 11.8061 14.041 11.7482 14.041C11.6903 14.041 11.6324 14.0989 11.5166 14.0989C11.4587 14.0989 11.3429 14.041 11.285 13.9831C11.1692 13.9252 11.0534 13.8094 10.9955 13.6936C10.8797 13.5778 10.764 13.4041 10.6482 13.1726C10.5324 12.941 10.3587 12.7094 10.2429 12.362L10.1271 12.1304C10.0692 12.0146 9.95339 11.783 9.83759 11.4935C9.7218 11.204 9.606 10.9725 9.4902 10.683C9.43231 10.5672 9.37442 10.5093 9.31652 10.4514H9.25862C9.25862 10.4514 9.20071 10.3935 9.14281 10.3935C9.08492 10.3935 9.02703 10.3356 8.96913 10.3356H6.88481C6.65322 10.3356 6.53743 10.3935 6.47953 10.4514L6.42163 10.5093C6.42163 10.5093 6.42163 10.5672 6.42163 10.6251C6.42163 10.683 6.42163 10.7409 6.47953 10.8567C6.76902 11.5514 7.1164 12.2462 7.46379 12.941C7.81117 13.5778 8.15856 14.1568 8.39015 14.5621C8.67964 14.9674 8.91123 15.3727 9.20072 15.7201C9.4902 16.0674 9.66389 16.299 9.72179 16.4148C9.83759 16.5306 9.89548 16.5885 9.95338 16.6464L10.1271 16.8201C10.2429 16.9359 10.4166 17.1096 10.6482 17.2833C10.8797 17.457 11.1692 17.6307 11.4587 17.8044C11.7482 17.9781 12.0956 18.0939 12.443 18.2097C12.8483 18.3254 13.1956 18.3833 13.543 18.3254H14.4115C14.5852 18.3254 14.701 18.2675 14.8168 18.1518L14.8747 18.0939C14.8747 18.036 14.9326 18.036 14.9326 17.9781C14.9326 17.9202 14.9326 17.8623 14.9326 17.7465C14.9326 17.5149 14.9326 17.3412 14.9905 17.1675C15.0484 16.9938 15.0484 16.878 15.1063 16.7622C15.1642 16.6464 15.2221 16.5885 15.28 16.5306C15.3379 16.4727 15.3958 16.4148 15.3958 16.4148H15.4536C15.5694 16.3569 15.7431 16.4148 15.8589 16.5306C16.0326 16.6464 16.2063 16.8201 16.3221 16.9938C16.4379 17.1675 16.6116 17.3412 16.8432 17.5728C17.0748 17.8044 17.2485 17.9781 17.3643 18.036L17.538 18.1518C17.6538 18.2096 17.7696 18.2675 17.9433 18.3254C18.1169 18.3833 18.2327 18.3833 18.3485 18.3833L20.3171 18.3254C20.4907 18.3254 20.6644 18.2676 20.7802 18.2097C20.896 18.1518 20.9539 18.0939 20.9539 17.9781C20.9539 17.9202 20.9539 17.8044 20.9539 17.7465C20.8381 17.6307 20.8381 17.5728 20.8381 17.5149Z"
        fill="#464646" />
</svg>
