<svg width="28" height="28" viewBox="0 0 28 28" fill="none" xmlns="http://www.w3.org/2000/svg">
<circle cx="13.9474" cy="13.9474" r="13.5987" stroke="#464646" stroke-width="0.697368"/>
<path d="M19.4752 8.41224C18.0975 7.0393 16.2605 6.27655 14.3215 6.27655C10.2904 6.27655 7.02466 9.53094 7.02466 13.5481C7.02466 14.8193 7.38185 16.0906 7.99417 17.1584L6.97363 20.9213L10.8517 19.9043C11.9232 20.4636 13.0969 20.7687 14.3215 20.7687C18.3526 20.7687 21.6184 17.5144 21.6184 13.4972C21.5673 11.6158 20.853 9.78518 19.4752 8.41224ZM17.8424 16.1414C17.6893 16.5482 16.9749 16.955 16.6177 17.0059C16.3116 17.0567 15.9033 17.0567 15.4951 16.955C15.24 16.8533 14.8828 16.7516 14.4746 16.5482C12.6376 15.7855 11.464 13.9549 11.362 13.8023C11.2599 13.7006 10.5965 12.8362 10.5965 11.9209C10.5965 11.0056 11.0558 10.5988 11.2089 10.3954C11.362 10.192 11.5661 10.192 11.7191 10.192C11.8212 10.192 11.9743 10.192 12.0763 10.192C12.1784 10.192 12.3315 10.1411 12.4845 10.4971C12.6376 10.853 12.9948 11.7683 13.0458 11.8192C13.0969 11.9209 13.0969 12.0226 13.0458 12.1243C12.9948 12.226 12.9438 12.3277 12.8417 12.4294C12.7397 12.5311 12.6376 12.6836 12.5866 12.7345C12.4845 12.8362 12.3825 12.9379 12.4845 13.0904C12.5866 13.2938 12.9438 13.8532 13.5051 14.3617C14.2195 14.9719 14.7808 15.1753 14.9849 15.277C15.189 15.3787 15.291 15.3278 15.3931 15.2261C15.4951 15.1244 15.8523 14.7176 15.9544 14.5142C16.0564 14.3108 16.2095 14.3617 16.3626 14.4125C16.5157 14.4634 17.4342 14.921 17.5872 15.0227C17.7913 15.1244 17.8934 15.1753 17.9444 15.2261C17.9955 15.3787 17.9955 15.7346 17.8424 16.1414Z" fill="#464646"/>
</svg>
